<mxfile host="app.diagrams.net" agent="Mozilla/5.0 (Macintosh; Intel Mac OS X 10_15_7) AppleWebKit/605.1.15 (KHTML, like Gecko) Version/17.5 Safari/605.1.15" version="26.1.3">
  <diagram name="第 1 页" id="P0X37leVDiIY0JSBpEs4">
    <mxGraphModel dx="650" dy="429" grid="1" gridSize="10" guides="1" tooltips="1" connect="1" arrows="1" fold="1" page="1" pageScale="1" pageWidth="827" pageHeight="1169" math="0" shadow="0">
      <root>
        <mxCell id="0" />
        <mxCell id="1" parent="0" />
        <mxCell id="SbGXOXO8LWaoFuI6wigv-1" value="" style="rounded=0;whiteSpace=wrap;html=1;fillColor=#fff2cc;strokeColor=none;" vertex="1" parent="1">
          <mxGeometry x="490" y="340" width="130" height="340" as="geometry" />
        </mxCell>
        <mxCell id="SbGXOXO8LWaoFuI6wigv-2" value="" style="rounded=0;whiteSpace=wrap;html=1;fillColor=#d5e8d4;strokeColor=none;" vertex="1" parent="1">
          <mxGeometry x="330" y="340" width="160" height="340" as="geometry" />
        </mxCell>
        <mxCell id="SbGXOXO8LWaoFuI6wigv-3" value="" style="endArrow=classic;html=1;rounded=0;" edge="1" parent="1">
          <mxGeometry width="50" height="50" relative="1" as="geometry">
            <mxPoint x="330" y="680" as="sourcePoint" />
            <mxPoint x="640" y="680" as="targetPoint" />
          </mxGeometry>
        </mxCell>
        <mxCell id="SbGXOXO8LWaoFuI6wigv-4" value="" style="endArrow=classic;html=1;rounded=0;entryX=0.5;entryY=1;entryDx=0;entryDy=0;" edge="1" parent="1" target="SbGXOXO8LWaoFuI6wigv-39">
          <mxGeometry width="50" height="50" relative="1" as="geometry">
            <mxPoint x="330" y="680" as="sourcePoint" />
            <mxPoint x="330" y="340" as="targetPoint" />
          </mxGeometry>
        </mxCell>
        <mxCell id="SbGXOXO8LWaoFuI6wigv-5" value="0" style="text;html=1;align=center;verticalAlign=middle;whiteSpace=wrap;rounded=0;" vertex="1" parent="1">
          <mxGeometry x="310" y="680" width="20" height="20" as="geometry" />
        </mxCell>
        <mxCell id="SbGXOXO8LWaoFuI6wigv-6" value="1" style="text;html=1;align=center;verticalAlign=middle;whiteSpace=wrap;rounded=0;" vertex="1" parent="1">
          <mxGeometry x="360" y="680" width="20" height="20" as="geometry" />
        </mxCell>
        <mxCell id="SbGXOXO8LWaoFuI6wigv-7" value="2" style="text;html=1;align=center;verticalAlign=middle;whiteSpace=wrap;rounded=0;" vertex="1" parent="1">
          <mxGeometry x="400" y="680" width="20" height="20" as="geometry" />
        </mxCell>
        <mxCell id="SbGXOXO8LWaoFuI6wigv-8" value="1" style="text;html=1;align=center;verticalAlign=middle;whiteSpace=wrap;rounded=0;" vertex="1" parent="1">
          <mxGeometry x="310" y="630" width="20" height="20" as="geometry" />
        </mxCell>
        <mxCell id="SbGXOXO8LWaoFuI6wigv-9" value="" style="endArrow=none;html=1;rounded=0;exitDx=0;exitDy=0;" edge="1" parent="1" source="SbGXOXO8LWaoFuI6wigv-16">
          <mxGeometry width="50" height="50" relative="1" as="geometry">
            <mxPoint x="330" y="670" as="sourcePoint" />
            <mxPoint x="410" y="600" as="targetPoint" />
          </mxGeometry>
        </mxCell>
        <mxCell id="SbGXOXO8LWaoFuI6wigv-10" value="2" style="text;html=1;align=center;verticalAlign=middle;whiteSpace=wrap;rounded=0;" vertex="1" parent="1">
          <mxGeometry x="310" y="590" width="20" height="20" as="geometry" />
        </mxCell>
        <mxCell id="SbGXOXO8LWaoFuI6wigv-11" value="3" style="text;html=1;align=center;verticalAlign=middle;whiteSpace=wrap;rounded=0;" vertex="1" parent="1">
          <mxGeometry x="310" y="550" width="20" height="20" as="geometry" />
        </mxCell>
        <mxCell id="SbGXOXO8LWaoFuI6wigv-12" value="4" style="text;html=1;align=center;verticalAlign=middle;whiteSpace=wrap;rounded=0;" vertex="1" parent="1">
          <mxGeometry x="310" y="510" width="20" height="20" as="geometry" />
        </mxCell>
        <mxCell id="SbGXOXO8LWaoFuI6wigv-13" value="" style="endArrow=none;html=1;rounded=0;exitX=1;exitY=0;exitDx=0;exitDy=0;" edge="1" parent="1" source="SbGXOXO8LWaoFuI6wigv-5" target="SbGXOXO8LWaoFuI6wigv-14">
          <mxGeometry width="50" height="50" relative="1" as="geometry">
            <mxPoint x="330" y="680" as="sourcePoint" />
            <mxPoint x="410" y="600" as="targetPoint" />
          </mxGeometry>
        </mxCell>
        <mxCell id="SbGXOXO8LWaoFuI6wigv-14" value="" style="shape=waypoint;sketch=0;size=6;pointerEvents=1;points=[];fillColor=none;resizable=0;rotatable=0;perimeter=centerPerimeter;snapToPoint=1;" vertex="1" parent="1">
          <mxGeometry x="360" y="630" width="20" height="20" as="geometry" />
        </mxCell>
        <mxCell id="SbGXOXO8LWaoFuI6wigv-15" value="" style="endArrow=none;html=1;rounded=0;exitDx=0;exitDy=0;" edge="1" parent="1" source="SbGXOXO8LWaoFuI6wigv-14" target="SbGXOXO8LWaoFuI6wigv-16">
          <mxGeometry width="50" height="50" relative="1" as="geometry">
            <mxPoint x="370" y="640" as="sourcePoint" />
            <mxPoint x="410" y="600" as="targetPoint" />
          </mxGeometry>
        </mxCell>
        <mxCell id="SbGXOXO8LWaoFuI6wigv-16" value="" style="shape=waypoint;sketch=0;size=6;pointerEvents=1;points=[];fillColor=none;resizable=0;rotatable=0;perimeter=centerPerimeter;snapToPoint=1;" vertex="1" parent="1">
          <mxGeometry x="400" y="590" width="20" height="20" as="geometry" />
        </mxCell>
        <mxCell id="SbGXOXO8LWaoFuI6wigv-17" value="" style="endArrow=none;html=1;rounded=0;" edge="1" parent="1" source="SbGXOXO8LWaoFuI6wigv-16">
          <mxGeometry width="50" height="50" relative="1" as="geometry">
            <mxPoint x="430" y="610" as="sourcePoint" />
            <mxPoint x="450" y="520" as="targetPoint" />
          </mxGeometry>
        </mxCell>
        <mxCell id="SbGXOXO8LWaoFuI6wigv-18" value="5" style="text;html=1;align=center;verticalAlign=middle;whiteSpace=wrap;rounded=0;" vertex="1" parent="1">
          <mxGeometry x="310" y="470" width="20" height="20" as="geometry" />
        </mxCell>
        <mxCell id="SbGXOXO8LWaoFuI6wigv-19" value="6" style="text;html=1;align=center;verticalAlign=middle;whiteSpace=wrap;rounded=0;" vertex="1" parent="1">
          <mxGeometry x="310" y="430" width="20" height="20" as="geometry" />
        </mxCell>
        <mxCell id="SbGXOXO8LWaoFuI6wigv-20" value="7" style="text;html=1;align=center;verticalAlign=middle;whiteSpace=wrap;rounded=0;" vertex="1" parent="1">
          <mxGeometry x="310" y="390" width="20" height="20" as="geometry" />
        </mxCell>
        <mxCell id="SbGXOXO8LWaoFuI6wigv-21" value="8" style="text;html=1;align=center;verticalAlign=middle;whiteSpace=wrap;rounded=0;" vertex="1" parent="1">
          <mxGeometry x="310" y="350" width="20" height="20" as="geometry" />
        </mxCell>
        <mxCell id="SbGXOXO8LWaoFuI6wigv-22" value="" style="shape=waypoint;sketch=0;size=6;pointerEvents=1;points=[];fillColor=none;resizable=0;rotatable=0;perimeter=centerPerimeter;snapToPoint=1;" vertex="1" parent="1">
          <mxGeometry x="440" y="510" width="20" height="20" as="geometry" />
        </mxCell>
        <mxCell id="SbGXOXO8LWaoFuI6wigv-23" value="" style="endArrow=none;html=1;rounded=0;exitDx=0;exitDy=0;exitPerimeter=0;" edge="1" parent="1" source="SbGXOXO8LWaoFuI6wigv-25">
          <mxGeometry width="50" height="50" relative="1" as="geometry">
            <mxPoint x="420" y="610" as="sourcePoint" />
            <mxPoint x="490" y="360" as="targetPoint" />
          </mxGeometry>
        </mxCell>
        <mxCell id="SbGXOXO8LWaoFuI6wigv-24" value="" style="endArrow=none;html=1;rounded=0;exitX=0.467;exitY=0.367;exitDx=0;exitDy=0;exitPerimeter=0;" edge="1" parent="1" source="SbGXOXO8LWaoFuI6wigv-22" target="SbGXOXO8LWaoFuI6wigv-25">
          <mxGeometry width="50" height="50" relative="1" as="geometry">
            <mxPoint x="450" y="520" as="sourcePoint" />
            <mxPoint x="490" y="360" as="targetPoint" />
          </mxGeometry>
        </mxCell>
        <mxCell id="SbGXOXO8LWaoFuI6wigv-25" value="" style="shape=waypoint;sketch=0;size=6;pointerEvents=1;points=[];fillColor=none;resizable=0;rotatable=0;perimeter=centerPerimeter;snapToPoint=1;strokeColor=#FF0000;" vertex="1" parent="1">
          <mxGeometry x="480" y="350" width="20" height="20" as="geometry" />
        </mxCell>
        <mxCell id="SbGXOXO8LWaoFuI6wigv-26" value="3" style="text;html=1;align=center;verticalAlign=middle;whiteSpace=wrap;rounded=0;" vertex="1" parent="1">
          <mxGeometry x="440" y="680" width="20" height="20" as="geometry" />
        </mxCell>
        <mxCell id="SbGXOXO8LWaoFuI6wigv-27" value="4" style="text;html=1;align=center;verticalAlign=middle;whiteSpace=wrap;rounded=0;" vertex="1" parent="1">
          <mxGeometry x="480" y="680" width="20" height="20" as="geometry" />
        </mxCell>
        <mxCell id="SbGXOXO8LWaoFuI6wigv-28" value="" style="shape=waypoint;sketch=0;size=6;pointerEvents=1;points=[];fillColor=none;resizable=0;rotatable=0;perimeter=centerPerimeter;snapToPoint=1;strokeColor=light-dark(#000000, #ff9090);" vertex="1" parent="1">
          <mxGeometry x="520" y="430" width="20" height="20" as="geometry" />
        </mxCell>
        <mxCell id="SbGXOXO8LWaoFuI6wigv-29" value="5" style="text;html=1;align=center;verticalAlign=middle;whiteSpace=wrap;rounded=0;" vertex="1" parent="1">
          <mxGeometry x="520" y="680" width="20" height="20" as="geometry" />
        </mxCell>
        <mxCell id="SbGXOXO8LWaoFuI6wigv-30" value="6" style="text;html=1;align=center;verticalAlign=middle;whiteSpace=wrap;rounded=0;" vertex="1" parent="1">
          <mxGeometry x="560" y="680" width="20" height="20" as="geometry" />
        </mxCell>
        <mxCell id="SbGXOXO8LWaoFuI6wigv-31" value="" style="endArrow=blockThin;html=1;rounded=0;endFill=1;fontColor=#FF0000;strokeColor=#FF0000;exitX=0;exitY=0.5;exitDx=0;exitDy=0;" edge="1" parent="1" source="SbGXOXO8LWaoFuI6wigv-32">
          <mxGeometry width="50" height="50" relative="1" as="geometry">
            <mxPoint x="560" y="350" as="sourcePoint" />
            <mxPoint x="505" y="356.875" as="targetPoint" />
          </mxGeometry>
        </mxCell>
        <mxCell id="SbGXOXO8LWaoFuI6wigv-32" value="&lt;font color=&quot;#ff0000&quot;&gt;发生报错&lt;/font&gt;" style="text;html=1;align=center;verticalAlign=middle;whiteSpace=wrap;rounded=0;" vertex="1" parent="1">
          <mxGeometry x="529" y="338" width="60" height="30" as="geometry" />
        </mxCell>
        <mxCell id="SbGXOXO8LWaoFuI6wigv-33" value="" style="shape=waypoint;sketch=0;size=6;pointerEvents=1;points=[];fillColor=none;resizable=0;rotatable=0;perimeter=centerPerimeter;snapToPoint=1;strokeColor=#FF0000;" vertex="1" parent="1">
          <mxGeometry x="560" y="390" width="20" height="20" as="geometry" />
        </mxCell>
        <mxCell id="SbGXOXO8LWaoFuI6wigv-34" value="" style="endArrow=blockThin;html=1;rounded=0;endFill=1;fontColor=#FF0000;strokeColor=#FF0000;exitX=0.5;exitY=1;exitDx=0;exitDy=0;" edge="1" parent="1">
          <mxGeometry width="50" height="50" relative="1" as="geometry">
            <mxPoint x="559" y="367" as="sourcePoint" />
            <mxPoint x="570" y="385" as="targetPoint" />
          </mxGeometry>
        </mxCell>
        <mxCell id="SbGXOXO8LWaoFuI6wigv-35" value="" style="endArrow=blockThin;html=1;rounded=0;endFill=1;fontColor=#FF0000;strokeColor=#336600;entryX=1;entryY=1;entryDx=0;entryDy=0;entryPerimeter=0;" edge="1" parent="1" source="SbGXOXO8LWaoFuI6wigv-36">
          <mxGeometry width="50" height="50" relative="1" as="geometry">
            <mxPoint x="595" y="470" as="sourcePoint" />
            <mxPoint x="575" y="450" as="targetPoint" />
          </mxGeometry>
        </mxCell>
        <mxCell id="SbGXOXO8LWaoFuI6wigv-36" value="&lt;font style=&quot;color: rgb(51, 102, 0);&quot;&gt;最终结果&lt;/font&gt;" style="text;html=1;align=center;verticalAlign=middle;whiteSpace=wrap;rounded=0;" vertex="1" parent="1">
          <mxGeometry x="566" y="465" width="60" height="30" as="geometry" />
        </mxCell>
        <mxCell id="SbGXOXO8LWaoFuI6wigv-37" value="&lt;div style=&quot;line-height: 140%;&quot;&gt;&lt;div style=&quot;line-height: 140%;&quot;&gt;&lt;span style=&quot;font-size: 15px; line-height: 140%;&quot;&gt;&lt;b&gt;快速上升阶段&lt;/b&gt;&lt;/span&gt;&lt;/div&gt;&lt;font style=&quot;color: rgb(0, 0, 0); font-size: 15px; line-height: 140%;&quot;&gt;&lt;b&gt;【指数增加】&lt;/b&gt;&lt;/font&gt;&lt;/div&gt;" style="text;html=1;align=center;verticalAlign=middle;whiteSpace=wrap;rounded=0;" vertex="1" parent="1">
          <mxGeometry x="350" y="440" width="110" height="30" as="geometry" />
        </mxCell>
        <mxCell id="SbGXOXO8LWaoFuI6wigv-38" value="&lt;div style=&quot;line-height: 140%;&quot;&gt;&lt;div style=&quot;line-height: 140%;&quot;&gt;&lt;span style=&quot;font-size: 15px; line-height: 140%;&quot;&gt;精细查找阶段&lt;/span&gt;&lt;/div&gt;&lt;font style=&quot;font-size: 15px; line-height: 140%;&quot;&gt;【二分查找】&lt;/font&gt;&lt;/div&gt;" style="text;html=1;align=center;verticalAlign=middle;whiteSpace=wrap;rounded=0;fontStyle=1" vertex="1" parent="1">
          <mxGeometry x="500" y="530" width="105" height="30" as="geometry" />
        </mxCell>
        <mxCell id="SbGXOXO8LWaoFuI6wigv-39" value="&lt;font style=&quot;color: rgb(0, 0, 0);&quot;&gt;&lt;b&gt;Batch大小&lt;/b&gt;&lt;/font&gt;" style="text;html=1;align=center;verticalAlign=middle;whiteSpace=wrap;rounded=0;" vertex="1" parent="1">
          <mxGeometry x="300" y="290" width="60" height="30" as="geometry" />
        </mxCell>
        <mxCell id="SbGXOXO8LWaoFuI6wigv-40" value="&lt;font style=&quot;color: rgb(0, 0, 0);&quot;&gt;&lt;b&gt;查找次数&lt;/b&gt;&lt;/font&gt;" style="text;html=1;align=center;verticalAlign=middle;whiteSpace=wrap;rounded=0;" vertex="1" parent="1">
          <mxGeometry x="620" y="680" width="60" height="30" as="geometry" />
        </mxCell>
        <mxCell id="SbGXOXO8LWaoFuI6wigv-41" value="7" style="text;html=1;align=center;verticalAlign=middle;whiteSpace=wrap;rounded=0;" vertex="1" parent="1">
          <mxGeometry x="600" y="680" width="20" height="20" as="geometry" />
        </mxCell>
        <mxCell id="SbGXOXO8LWaoFuI6wigv-42" value="" style="endArrow=none;html=1;rounded=0;" edge="1" parent="1" source="SbGXOXO8LWaoFuI6wigv-28" target="SbGXOXO8LWaoFuI6wigv-25">
          <mxGeometry width="50" height="50" relative="1" as="geometry">
            <mxPoint x="570" y="410" as="sourcePoint" />
            <mxPoint x="500" y="370" as="targetPoint" />
          </mxGeometry>
        </mxCell>
        <mxCell id="SbGXOXO8LWaoFuI6wigv-43" value="" style="endArrow=none;html=1;rounded=0;strokeColor=#000000;entryX=0.137;entryY=0.703;entryDx=0;entryDy=0;entryPerimeter=0;" edge="1" parent="1" target="SbGXOXO8LWaoFuI6wigv-28">
          <mxGeometry width="50" height="50" relative="1" as="geometry">
            <mxPoint x="570" y="400" as="sourcePoint" />
            <mxPoint x="520" y="480" as="targetPoint" />
          </mxGeometry>
        </mxCell>
        <mxCell id="SbGXOXO8LWaoFuI6wigv-44" value="" style="endArrow=none;html=1;rounded=0;strokeColor=light-dark(#4f7a28, #ededed);exitDx=0;exitDy=0;exitPerimeter=0;dashed=1;" edge="1" parent="1" source="SbGXOXO8LWaoFuI6wigv-46">
          <mxGeometry width="50" height="50" relative="1" as="geometry">
            <mxPoint x="580" y="410" as="sourcePoint" />
            <mxPoint x="570" y="440" as="targetPoint" />
          </mxGeometry>
        </mxCell>
        <mxCell id="SbGXOXO8LWaoFuI6wigv-45" value="" style="endArrow=none;html=1;rounded=0;strokeColor=light-dark(#4f7a28, #ededed);exitX=0.611;exitY=0.676;exitDx=0;exitDy=0;exitPerimeter=0;dashed=1;" edge="1" parent="1" source="SbGXOXO8LWaoFuI6wigv-33" target="SbGXOXO8LWaoFuI6wigv-46">
          <mxGeometry width="50" height="50" relative="1" as="geometry">
            <mxPoint x="570" y="400" as="sourcePoint" />
            <mxPoint x="570" y="440" as="targetPoint" />
          </mxGeometry>
        </mxCell>
        <mxCell id="SbGXOXO8LWaoFuI6wigv-46" value="" style="shape=waypoint;sketch=0;size=6;pointerEvents=1;points=[];fillColor=none;resizable=0;rotatable=0;perimeter=centerPerimeter;snapToPoint=1;strokeColor=light-dark(#4D9900,#FF9090);" vertex="1" parent="1">
          <mxGeometry x="560" y="430" width="20" height="20" as="geometry" />
        </mxCell>
        <mxCell id="SbGXOXO8LWaoFuI6wigv-47" value="" style="endArrow=none;html=1;rounded=0;strokeColor=light-dark(#999999,#EDEDED);dashed=1;exitX=1;exitY=0;exitDx=0;exitDy=0;" edge="1" parent="1" source="SbGXOXO8LWaoFuI6wigv-2">
          <mxGeometry width="50" height="50" relative="1" as="geometry">
            <mxPoint x="490" y="340" as="sourcePoint" />
            <mxPoint x="490" y="680" as="targetPoint" />
          </mxGeometry>
        </mxCell>
      </root>
    </mxGraphModel>
  </diagram>
</mxfile>
